<?xml version="1.0" encoding="UTF-8"?>
<svg width="800px" height="800px" viewBox="0 0 24 24" fill="none" xmlns="http://www.w3.org/2000/svg" xmlns:bx="https://boxy-svg.com"><defs><linearGradient id="color-0" gradientUnits="userSpaceOnUse" bx:pinned="true"><stop style="stop-color: rgb(25, 20, 20);"/></linearGradient><linearGradient id="gradient-4" bx:pinned="true"><stop offset="0" style="stop-color: rgb(25, 20, 20);"/><stop offset="0.215" style="stop-color: rgb(27, 73, 41);"/><stop offset="0.361" style="stop-color: rgb(28, 118, 58);"/><stop offset="0.57" style="stop-color: rgb(29, 163, 76);"/><stop offset="1" style="stop-color: rgb(30, 215, 96);"/></linearGradient><bx:export><bx:file format="svg" path="icon1.svg"/></bx:export><linearGradient id="color-1" bx:pinned="true" gradientUnits="userSpaceOnUse"><stop style="stop-color: rgb(30, 215, 96);"/></linearGradient></defs><g transform="matrix(1.145903, 0, 0, 1.143398, -1.781808, -1.714195)" style=""><path d="M11.71,17.99C8.53,17.84,6,15.22,6,12c0-3.31,2.69-6,6-6c3.22,0,5.84,2.53,5.99,5.71l-2.1-0.63C15.48,9.31,13.89,8,12,8 c-2.21,0-4,1.79-4,4c0,1.89,1.31,3.48,3.08,3.89L11.71,17.99z M22,12c0,0.3-0.01,0.6-0.04,0.9l-1.97-0.59C20,12.21,20,12.1,20,12 c0-4.42-3.58-8-8-8s-8,3.58-8,8s3.58,8,8,8c0.1,0,0.21,0,0.31-0.01l0.59,1.97C12.6,21.99,12.3,22,12,22C6.48,22,2,17.52,2,12 C2,6.48,6.48,2,12,2S22,6.48,22,12z M18.23,16.26L22,15l-10-3l3,10l1.26-3.77l4.27,4.27l1.98-1.98L18.23,16.26z" style="stroke-width: 0px; stroke-miterlimit: 9.72; stroke: rgb(53, 138, 48); fill-rule: nonzero; paint-order: fill; fill: url(&quot;#color-1&quot;);"/></g></svg>