<?xml version="1.0" encoding="UTF-8"?>
<svg width="800px" height="800px" viewBox="0 0 24 24" fill="none" xmlns="http://www.w3.org/2000/svg" xmlns:bx="https://boxy-svg.com"><defs><linearGradient id="color-0" gradientUnits="userSpaceOnUse" bx:pinned="true"><stop style="stop-color: rgb(183, 36, 29)"/></linearGradient><linearGradient id="gradient-4" bx:pinned="true"><stop offset="1" style="stop-color: rgb(255, 58, 43);"/></linearGradient><radialGradient id="gradient-4-0" href="#gradient-4" gradientUnits="userSpaceOnUse" cx="12" cy="13.432" r="9"/><radialGradient id="gradient-4-1" href="#gradient-4" gradientUnits="userSpaceOnUse" cx="12.1" cy="6.89" r="3.025" gradientTransform="matrix(0.983114, 0, 0, 1.013231, 0.193034, -1.44653)"/><bx:export><bx:file format="svg" path="icon1.svg"/></bx:export></defs><g id="SVGRepo_iconCarrier" transform="matrix(1.169131, 0, 0, 1.169131, -1.999462, 0.113089)" style=""><path d="M 3 11 L 3 13 M 6 8 L 6 16 M 9 10.218 L 9 14 M 12 12.64 L 12 17 M 15 10.273 L 15 18.864 M 18 9 L 18 15 M 21 11 L 21 13" style="stroke-width: 1.75px; stroke-linecap: square; paint-order: fill; stroke: url(&quot;#gradient-4-0&quot;);"/></g><path d="M 12.09 9.475 C 13.577 7.9 15.064 6.486 15.064 4.746 C 15.064 3.004 13.733 1.592 12.09 1.592 C 10.447 1.592 9.115 3.004 9.115 4.746 C 9.115 6.486 10.604 7.9 12.09 9.475 Z" style="stroke-width: 1.75px; stroke-linecap: square; paint-order: fill; stroke: url(&quot;#gradient-4-1&quot;);"/></svg>